<?xml version="1.0" encoding="UTF-8"?>
<svg width="371px" height="79px" viewBox="0 0 371 79" version="1.1" xmlns="http://www.w3.org/2000/svg" xmlns:xlink="http://www.w3.org/1999/xlink" style="background: #9B9B9B;">
    <!-- Generator: Sketch 43.2 (39069) - http://www.bohemiancoding.com/sketch -->
    <title>Artboard</title>
    <desc>Created with Sketch.</desc>
    <defs></defs>
    <g id="Page-1" stroke="none" stroke-width="1" fill="none" fill-rule="evenodd">
        <g id="Artboard">
            <g id="Group">
                <path d="M66,56.953125 L65.53125,56.953125 C63.7187409,59.4843877 61.5312628,60.75 58.96875,60.75 C55.4999827,60.75 52.8281344,59.4843877 50.953125,56.953125 C47.9843602,52.9843552 46.5,47.00004 46.5,39 C46.5,30.99996 47.9843602,25.0156448 50.953125,21.046875 C52.8281344,18.5156123 55.4999827,17.25 58.96875,17.25 C61.5312628,17.25 63.7187409,18.5156123 65.53125,21.046875 L66,21.046875 L66,18 L78,18 L78,58.5 C78,63.8437767 77.0468845,68.1093591 75.140625,71.296875 C73.734368,73.6093866 71.734388,75.4296809 69.140625,76.7578125 C66.546862,78.0859441 63.4062684,78.75 59.71875,78.75 C56.0937319,78.75 52.4062687,78.5156273 48.65625,78.046875 L48.65625,66.796875 C52.8750211,67.2656273 56.5624842,67.5 59.71875,67.5 C61.9687612,67.5 63.5781202,66.6406336 64.546875,64.921875 C65.5156298,63.2031164 66,61.0625128 66,58.5 L66,56.953125 Z M58.5,39 C58.5,43.4687723 59.0156198,46.499992 60.046875,48.09375 C60.640628,49.0312547 61.3749956,49.5 62.25,49.5 C63.1250044,49.5 63.859372,49.0312547 64.453125,48.09375 C65.4843802,46.499992 66,43.4687723 66,39 C66,34.5312277 65.4843802,31.500008 64.453125,29.90625 C63.859372,28.9687453 63.1250044,28.5 62.25,28.5 C61.3749956,28.5 60.640628,28.9687453 60.046875,29.90625 C59.0156198,31.500008 58.5,34.5312277 58.5,39 Z M114,46.265625 L110.8125,46.265625 C109.281242,46.265625 108.179691,46.710933 107.507812,47.6015625 C106.835934,48.492192 106.5,49.8906155 106.5,51.796875 C106.5,52.8593803 106.749998,53.742184 107.25,54.4453125 C107.750002,55.148441 108.468745,55.5 109.40625,55.5 C110.468755,55.5 111.335934,55.2343777 112.007812,54.703125 C112.679691,54.1718723 113.148436,53.4140674 113.414062,52.4296875 C113.679689,51.4453076 113.84375,50.6093784 113.90625,49.921875 C113.96875,49.2343716 114,48.3750052 114,47.34375 L114,46.265625 Z M112.5,17.25 C115.187513,17.25 117.546865,17.6640584 119.578125,18.4921875 C121.609385,19.3203166 123.281243,20.8906134 124.59375,23.203125 C125.531255,24.8593833 126,27.4218577 126,30.890625 L126,66 L114,66 L114,63.515625 L113.53125,63.515625 C111.781241,65.6718858 109.562513,66.75 106.875,66.75 C103.562483,66.75 100.671887,65.3281392 98.203125,62.484375 C95.7343627,59.6406108 94.5,56.1093961 94.5,51.890625 C94.5,47.296852 95.8749863,43.5156398 98.625,40.546875 C99.625005,39.4843697 100.695307,38.6171909 101.835938,37.9453125 C102.976568,37.2734341 104.148431,36.8125012 105.351562,36.5625 C106.554694,36.3124988 107.523434,36.1562503 108.257812,36.09375 C108.992191,36.0312497 109.874995,36 110.90625,36 L114,36 L114,31.125 C114,30.4999969 113.734378,29.9140652 113.203125,29.3671875 C112.671872,28.8203098 111.984379,28.546875 111.140625,28.546875 C108.265611,28.546875 104.218776,28.843747 99,29.4375 L99,18.140625 C104.156276,17.546872 108.656231,17.25 112.5,17.25 Z M158.578125,66.75 C154.984357,66.75 150.125031,66.4062534 144,65.71875 L144,54.46875 C149.843779,55.1562534 154.703106,55.5 158.578125,55.5 C160.328134,55.5 161.585934,55.0312547 162.351562,54.09375 C163.117191,53.1562453 163.5,52.187505 163.5,51.1875 C163.5,50.1562448 163.265627,49.3046909 162.796875,48.6328125 C162.328123,47.9609341 161.703129,47.5468758 160.921875,47.390625 C160.359372,47.2656244 159.375007,47.1171884 157.96875,46.9453125 C156.562493,46.7734366 155.257819,46.539064 154.054688,46.2421875 C152.851556,45.945311 151.671881,45.500003 150.515625,44.90625 C148.359364,43.7812444 146.562507,42.1250109 145.125,39.9375 C143.687493,37.7499891 142.96875,35.2031395 142.96875,32.296875 C142.96875,30.9218681 143.171873,29.5390695 143.578125,28.1484375 C143.984377,26.7578055 144.617183,25.4062566 145.476562,24.09375 C146.335942,22.7812434 147.374994,21.6171926 148.59375,20.6015625 C149.812506,19.5859324 151.304679,18.7734405 153.070312,18.1640625 C154.835946,17.5546845 156.74999,17.25 158.8125,17.25 C162.281267,17.25 167.187468,17.5781217 173.53125,18.234375 L173.53125,29.484375 C167.124968,28.8281217 162.218767,28.5 158.8125,28.5 C157.499993,28.5 156.531253,28.9140584 155.90625,29.7421875 C155.281247,30.5703166 154.96875,31.3906209 154.96875,32.203125 C154.96875,33.4843814 155.265622,34.4921838 155.859375,35.2265625 C156.453128,35.9609412 157.187496,36.3906244 158.0625,36.515625 C158.468752,36.5781253 159.257807,36.6796868 160.429688,36.8203125 C161.601568,36.9609382 162.515622,37.0937494 163.171875,37.21875 C163.828128,37.3437506 164.664057,37.554686 165.679688,37.8515625 C166.695318,38.148439 167.640621,38.5546849 168.515625,39.0703125 C169.390629,39.5859401 170.234371,40.2343711 171.046875,41.015625 C174.01564,43.7968889 175.5,47.1562303 175.5,51.09375 C175.5,53.09376 175.140629,55.0156158 174.421875,56.859375 C173.703121,58.7031342 172.671882,60.3671801 171.328125,61.8515625 C169.984368,63.3359449 168.210949,64.523433 166.007812,65.4140625 C163.804676,66.304692 161.328139,66.75 158.578125,66.75 Z" id="#gashack" fill="#000000"></path>
                <path d="M286.5,42 C286.5,38.4999825 286.617186,35.6250113 286.851562,33.375 C287.085939,31.1249887 287.640621,29.0156348 288.515625,27.046875 C291.359389,20.5155923 296.656211,17.25 304.40625,17.25 C307.531266,17.25 311.749973,17.5156223 317.0625,18.046875 L317.0625,23.671875 C311.687473,23.1406223 307.468765,22.875 304.40625,22.875 C301.718737,22.875 299.585945,23.3828074 298.007812,24.3984375 C296.42968,25.4140676 295.14063,26.9531147 294.140625,29.015625 C293.640623,30.0781303 293.257814,31.406242 292.992188,33 C292.726561,34.593758 292.578125,35.9609318 292.546875,37.1015625 C292.515625,38.2421932 292.5,39.8749894 292.5,42 C292.5,44.1250106 292.515625,45.7578068 292.546875,46.8984375 C292.578125,48.0390682 292.726561,49.406242 292.992188,51 C293.257814,52.593758 293.640623,53.9218697 294.140625,54.984375 C295.14063,57.0468853 296.42968,58.5859324 298.007812,59.6015625 C299.585945,60.6171926 301.718737,61.125 304.40625,61.125 C308.062518,61.125 312.593723,60.7187541 318,59.90625 L318,65.53125 C312.624973,66.3437541 308.093768,66.75 304.40625,66.75 C296.656211,66.75 291.359389,63.4844077 288.515625,56.953125 C287.640621,54.9843652 287.085939,52.8750113 286.851562,50.625 C286.617186,48.3749887 286.5,45.5000175 286.5,42 Z" id="Path" fill="#FFFFFF"></path>
                <polygon id="Path" fill="#FFFFFF" points="342 66 336 66 336 0 342 0 342 37.78125 361.21875 18 368.765625 18 351.75 35.765625 370.96875 66 363.65625 66 347.859375 39.75 342 45.609375"></polygon>
                <path d="M256.5,17.25 C259.187513,17.25 261.546865,17.6640584 263.578125,18.4921875 C265.609385,19.3203166 267.281243,20.8906134 268.59375,23.203125 C269.531255,24.8593833 270,27.4218577 270,30.890625 L270,66 L264,66 L264,60.234375 L263.53125,60.234375 C260.374984,64.5781467 256.468773,66.75 251.8125,66.75 C248.062481,66.75 244.906263,65.3437641 242.34375,62.53125 C239.781237,59.7187359 238.5,56.1718964 238.5,51.890625 C238.5,47.3906025 239.874986,43.7656387 242.625,41.015625 C243.625005,40.0468702 244.687494,39.2500031 245.8125,38.625 C246.937506,37.9999969 248.117181,37.5703137 249.351562,37.3359375 C250.585944,37.1015613 251.554684,36.9609377 252.257812,36.9140625 C252.960941,36.8671873 253.843745,36.84375 254.90625,36.84375 L264,36.84375 L264,31.125 C264,28.4062364 263.718753,26.5625048 263.15625,25.59375 C262.624997,24.6874955 261.867192,24.0078148 260.882812,23.5546875 C259.898433,23.1015602 258.43751,22.875 256.5,22.875 C252.749981,22.875 248.250026,23.2031217 243,23.859375 L243,18.140625 C248.156276,17.546872 252.656231,17.25 256.5,17.25 Z M264,42 L254.8125,42 C253.656244,42 252.757816,42.0312497 252.117188,42.09375 C251.476559,42.1562503 250.67188,42.3828105 249.703125,42.7734375 C248.73437,43.1640645 247.875004,43.7499961 247.125,44.53125 C245.374991,46.3750092 244.5,48.79686 244.5,51.796875 C244.5,54.4531383 245.257805,56.6718661 246.773438,58.453125 C248.28907,60.2343839 250.343737,61.125 252.9375,61.125 C254.437508,61.125 255.773432,60.9062522 256.945312,60.46875 C258.117193,60.0312478 259.085934,59.4843783 259.851562,58.828125 C260.617191,58.1718717 261.273435,57.3125053 261.820312,56.25 C262.36719,55.1874947 262.773436,54.1953171 263.039062,53.2734375 C263.304689,52.3515579 263.515624,51.2500064 263.671875,49.96875 C263.828126,48.6874936 263.921875,47.6406291 263.953125,46.828125 C263.984375,46.0156209 264,45.0468806 264,43.921875 L264,42 Z" id="Combined-Shape" fill="#FFFFFF"></path>
                <path d="M207.9375,17.25 C210.187511,17.25 212.249991,17.7031205 214.125,18.609375 C216.000009,19.5156295 217.546869,20.7343673 218.765625,22.265625 C219.546879,23.2343798 220.171873,24.2343698 220.640625,25.265625 C221.109377,26.2968802 221.429687,27.4374937 221.601562,28.6875 C221.773438,29.9375063 221.882812,30.9687459 221.929688,31.78125 C221.976563,32.5937541 222,33.7343677 222,35.203125 L222,66 L216,66 L216,35.203125 C216,33.4843664 215.976563,32.2031292 215.929688,31.359375 C215.882812,30.5156208 215.695314,29.5703177 215.367188,28.5234375 C215.039061,27.4765573 214.546878,26.5625039 213.890625,25.78125 C212.203117,23.8437403 209.906265,22.875 207,22.875 C204.093735,22.875 201.796883,23.8437403 200.109375,25.78125 C199.453122,26.5625039 198.960939,27.4765573 198.632812,28.5234375 C198.304686,29.5703177 198.117188,30.5156208 198.070312,31.359375 C198.023437,32.2031292 198,33.4843664 198,35.203125 L198,66 L192,66 L192,0 L198,0 L198,23.25 L198.46875,23.25 C199.625006,21.4374909 201.054679,19.9843805 202.757812,18.890625 C204.460946,17.7968695 206.187491,17.25 207.9375,17.25 Z" id="Path" fill="#FFFFFF"></path>
                <path d="M36,42.375 L36,48 L30,48 L30,66 L24,66 L24,48 L12,48 L12,66 L6,66 L6,48 L0,48 L0,42.375 L6,42.375 L6,23.625 L0,23.625 L0,18 L6,18 L6,0 L12,0 L12,18 L24,18 L24,0 L30,0 L30,18 L36,18 L36,23.625 L30,23.625 L30,42.375 L36,42.375 Z M12,23.625 L12,42.375 L24,42.375 L24,23.625 L12,23.625 Z" id="Combined-Shape" stroke="#000000" fill="#FFFFFF"></path>
            </g>
        </g>
    </g>
</svg>